<?xml version="1.0" encoding="utf-8"?>
<svg xmlns="http://www.w3.org/2000/svg" xmlns:xlink="http://www.w3.org/1999/xlink" style="margin: auto; background: none; display: block; shape-rendering: auto;" width="30px" height="30px" viewBox="0 0 100 100" preserveAspectRatio="xMidYMid">
<g transform="rotate(0 50 50)">
  <rect x="46" y="4" rx="4" ry="6.5" width="8" height="26" fill="#525252">
    <animate attributeName="opacity" values="1;0" keyTimes="0;1" dur="1.4285714285714284s" begin="-1.333333333333333s" repeatCount="indefinite"></animate>
  </rect>
</g><g transform="rotate(24 50 50)">
  <rect x="46" y="4" rx="4" ry="6.5" width="8" height="26" fill="#525252">
    <animate attributeName="opacity" values="1;0" keyTimes="0;1" dur="1.4285714285714284s" begin="-1.238095238095238s" repeatCount="indefinite"></animate>
  </rect>
</g><g transform="rotate(48 50 50)">
  <rect x="46" y="4" rx="4" ry="6.5" width="8" height="26" fill="#525252">
    <animate attributeName="opacity" values="1;0" keyTimes="0;1" dur="1.4285714285714284s" begin="-1.1428571428571426s" repeatCount="indefinite"></animate>
  </rect>
</g><g transform="rotate(72 50 50)">
  <rect x="46" y="4" rx="4" ry="6.5" width="8" height="26" fill="#525252">
    <animate attributeName="opacity" values="1;0" keyTimes="0;1" dur="1.4285714285714284s" begin="-1.0476190476190474s" repeatCount="indefinite"></animate>
  </rect>
</g><g transform="rotate(96 50 50)">
  <rect x="46" y="4" rx="4" ry="6.5" width="8" height="26" fill="#525252">
    <animate attributeName="opacity" values="1;0" keyTimes="0;1" dur="1.4285714285714284s" begin="-0.9523809523809522s" repeatCount="indefinite"></animate>
  </rect>
</g><g transform="rotate(120 50 50)">
  <rect x="46" y="4" rx="4" ry="6.5" width="8" height="26" fill="#525252">
    <animate attributeName="opacity" values="1;0" keyTimes="0;1" dur="1.4285714285714284s" begin="-0.857142857142857s" repeatCount="indefinite"></animate>
  </rect>
</g><g transform="rotate(144 50 50)">
  <rect x="46" y="4" rx="4" ry="6.5" width="8" height="26" fill="#525252">
    <animate attributeName="opacity" values="1;0" keyTimes="0;1" dur="1.4285714285714284s" begin="-0.7619047619047618s" repeatCount="indefinite"></animate>
  </rect>
</g><g transform="rotate(168 50 50)">
  <rect x="46" y="4" rx="4" ry="6.5" width="8" height="26" fill="#525252">
    <animate attributeName="opacity" values="1;0" keyTimes="0;1" dur="1.4285714285714284s" begin="-0.6666666666666665s" repeatCount="indefinite"></animate>
  </rect>
</g><g transform="rotate(192 50 50)">
  <rect x="46" y="4" rx="4" ry="6.5" width="8" height="26" fill="#525252">
    <animate attributeName="opacity" values="1;0" keyTimes="0;1" dur="1.4285714285714284s" begin="-0.5714285714285713s" repeatCount="indefinite"></animate>
  </rect>
</g><g transform="rotate(216 50 50)">
  <rect x="46" y="4" rx="4" ry="6.5" width="8" height="26" fill="#525252">
    <animate attributeName="opacity" values="1;0" keyTimes="0;1" dur="1.4285714285714284s" begin="-0.4761904761904761s" repeatCount="indefinite"></animate>
  </rect>
</g><g transform="rotate(240 50 50)">
  <rect x="46" y="4" rx="4" ry="6.5" width="8" height="26" fill="#525252">
    <animate attributeName="opacity" values="1;0" keyTimes="0;1" dur="1.4285714285714284s" begin="-0.3809523809523809s" repeatCount="indefinite"></animate>
  </rect>
</g><g transform="rotate(264 50 50)">
  <rect x="46" y="4" rx="4" ry="6.5" width="8" height="26" fill="#525252">
    <animate attributeName="opacity" values="1;0" keyTimes="0;1" dur="1.4285714285714284s" begin="-0.28571428571428564s" repeatCount="indefinite"></animate>
  </rect>
</g><g transform="rotate(288 50 50)">
  <rect x="46" y="4" rx="4" ry="6.5" width="8" height="26" fill="#525252">
    <animate attributeName="opacity" values="1;0" keyTimes="0;1" dur="1.4285714285714284s" begin="-0.19047619047619044s" repeatCount="indefinite"></animate>
  </rect>
</g><g transform="rotate(312 50 50)">
  <rect x="46" y="4" rx="4" ry="6.5" width="8" height="26" fill="#525252">
    <animate attributeName="opacity" values="1;0" keyTimes="0;1" dur="1.4285714285714284s" begin="-0.09523809523809522s" repeatCount="indefinite"></animate>
  </rect>
</g><g transform="rotate(336 50 50)">
  <rect x="46" y="4" rx="4" ry="6.5" width="8" height="26" fill="#525252">
    <animate attributeName="opacity" values="1;0" keyTimes="0;1" dur="1.4285714285714284s" begin="0s" repeatCount="indefinite"></animate>
  </rect>
</g>
<!-- [ldio] generated by https://loading.io/ --></svg>