<svg width="30" height="29" viewBox="0 0 30 29" fill="none" xmlns="http://www.w3.org/2000/svg">
<path d="M19.374 21.3932H18.1244C17.7793 21.3932 17.4995 21.6498 17.4995 21.9663V25.9778H2.50403V3.05476H17.4995V7.0663C17.4995 7.3828 17.7793 7.6394 18.1244 7.6394H19.374C19.719 7.6394 19.9988 7.3828 19.9988 7.0663V3.05476C19.9987 1.78876 18.8798 0.762436 17.4995 0.762436H2.50403C1.12374 0.762436 0.00476074 1.78876 0.00476074 3.05476V25.9778C0.00476074 27.2438 1.12374 28.2701 2.50403 28.2701H17.4995C18.8798 28.2701 19.9988 27.2438 19.9988 25.9777V21.9662C19.9987 21.6498 19.719 21.3932 19.374 21.3932Z" fill="white"/>
<path d="M29.793 14.0933L22.2952 7.7895C22.1122 7.6367 21.8467 7.59474 21.6216 7.68763C21.3946 7.77886 21.2482 7.98479 21.2482 8.212V9.35818C21.2482 9.52049 21.3232 9.67549 21.455 9.78407L25.7985 13.3697H8.12709C7.78173 13.3697 7.50226 13.6261 7.50226 13.9428V15.089C7.50226 15.4057 7.78173 15.662 8.12709 15.662H25.7985L21.455 19.2477C21.3232 19.3563 21.2482 19.5113 21.2482 19.6736V20.8197C21.2482 21.0469 21.3946 21.2529 21.6216 21.3441C21.7021 21.3771 21.7882 21.3928 21.873 21.3928C22.0262 21.3928 22.1775 21.3407 22.2952 21.2422L29.793 14.9384C29.9223 14.8298 29.9955 14.6765 29.9955 14.5159C29.9955 14.3552 29.9223 14.2019 29.793 14.0933Z" fill="white"/>
</svg>
