<svg width="28" height="30" viewBox="0 0 26 29" fill="none" xmlns="http://www.w3.org/2000/svg">
<path d="M12.7862 14.0125C14.7715 14.0125 16.4904 13.3594 17.8953 12.0708C19.2997 10.7825 20.012 9.20613 20.012 7.38499C20.012 5.56448 19.3 3.98791 17.8951 2.69915C16.4902 1.41103 14.7713 0.757935 12.7862 0.757935C10.8007 0.757935 9.082 1.41103 7.67735 2.69936C6.27271 3.9877 5.56042 5.56427 5.56042 7.38499C5.56042 9.20613 6.27271 10.7827 7.67735 12.071C9.08246 13.3592 10.8014 14.0125 12.7862 14.0125ZM8.92064 3.83949C9.99844 2.85093 11.2628 2.3704 12.7862 2.3704C14.3094 2.3704 15.574 2.85093 16.652 3.83949C17.7298 4.82826 18.254 5.98812 18.254 7.38499C18.254 8.78228 17.7298 9.94193 16.652 10.9307C15.574 11.9195 14.3094 12.4 12.7862 12.4C11.2632 12.4 9.9989 11.9193 8.92064 10.9307C7.84261 9.94214 7.31847 8.78228 7.31847 7.38499C7.31847 5.98812 7.84261 4.82826 8.92064 3.83949Z" fill="white"/>
<path d="M25.4294 21.9163C25.3889 21.3802 25.307 20.7953 25.1864 20.1777C25.0646 19.5555 24.9078 18.9672 24.7201 18.4296C24.526 17.8739 24.2626 17.3252 23.9364 16.7993C23.5984 16.2535 23.201 15.7782 22.7552 15.3871C22.2889 14.9779 21.7181 14.649 21.058 14.409C20.4002 14.1703 19.6712 14.0494 18.8914 14.0494C18.5852 14.0494 18.289 14.1647 17.717 14.5062C17.365 14.7168 16.9532 14.9603 16.4937 15.2296C16.1007 15.4593 15.5683 15.6745 14.9107 15.8693C14.2691 16.0597 13.6178 16.1563 12.9746 16.1563C12.3319 16.1563 11.6805 16.0597 11.0385 15.8693C10.3816 15.6747 9.84898 15.4595 9.45668 15.2299C9.00143 14.963 8.58945 14.7195 8.23216 14.506C7.66064 14.1645 7.36447 14.0492 7.05823 14.0492C6.2782 14.0492 5.54944 14.1703 4.89186 14.4092C4.23222 14.6488 3.66116 14.9777 3.19447 15.3873C2.74861 15.7786 2.35127 16.2537 2.01344 16.7993C1.68774 17.3252 1.42407 17.8737 1.22998 18.4298C1.04253 18.9674 0.885742 19.5555 0.763977 20.1777C0.643127 20.7945 0.561417 21.3795 0.520905 21.9169C0.481079 22.4424 0.460938 22.9893 0.460938 23.5418C0.460938 24.9781 0.958755 26.1409 1.94043 26.9985C2.90997 27.8447 4.19263 28.2738 5.75291 28.2738H20.1981C21.7579 28.2738 23.0406 27.8447 24.0104 26.9985C24.9923 26.1416 25.4901 24.9784 25.4901 23.5416C25.4899 22.9872 25.4695 22.4403 25.4294 21.9163ZM22.7982 25.8302C22.1576 26.3895 21.307 26.6614 20.1979 26.6614H5.75291C4.64352 26.6614 3.793 26.3895 3.15259 25.8305C2.52431 25.2819 2.21898 24.5331 2.21898 23.5418C2.21898 23.0262 2.23752 22.5171 2.2746 22.0284C2.31076 21.5489 2.38469 21.0222 2.49432 20.4626C2.60258 19.9098 2.74037 19.3911 2.90425 18.9215C3.06149 18.4712 3.27596 18.0253 3.54192 17.5958C3.79575 17.1864 4.0878 16.8352 4.41006 16.5522C4.7115 16.2875 5.09145 16.0708 5.53914 15.9083C5.95319 15.758 6.4185 15.6757 6.92365 15.6634C6.98521 15.6934 7.09485 15.7507 7.27246 15.8569C7.63387 16.0729 8.05043 16.3194 8.51094 16.5891C9.03004 16.8927 9.69884 17.1669 10.4979 17.4035C11.3147 17.6457 12.1479 17.7687 12.9748 17.7687C13.8018 17.7687 14.6351 17.6457 15.4516 17.4037C16.2513 17.1667 16.9198 16.8927 17.4396 16.5887C17.9109 16.3125 18.3158 16.0731 18.6772 15.8569C18.8548 15.7509 18.9644 15.6934 19.026 15.6634C19.5314 15.6757 19.9967 15.758 20.411 15.9083C20.8584 16.0708 21.2384 16.2877 21.5398 16.5522C21.8621 16.835 22.1541 17.1862 22.408 17.596C22.6741 18.0253 22.8888 18.4714 23.0459 18.9213C23.21 19.3915 23.348 19.91 23.456 20.4623C23.5654 21.0231 23.6396 21.55 23.6757 22.0286V22.0291C23.713 22.5159 23.7318 23.0247 23.732 23.5418C23.7318 24.5333 23.4265 25.2819 22.7982 25.8302Z" fill="white"/>
</svg>
