<svg viewBox="0 0 20 20" fill="none" xmlns="http://www.w3.org/2000/svg">
<g clip-path="url(#clip0)">
<path d="M8.80758 0.330658C3.95121 0.330658 0 4.14963 0 8.84347C0 13.5376 3.95121 17.3563 8.80758 17.3563C13.6642 17.3563 17.6152 13.5376 17.6152 8.84347C17.6152 4.14963 13.6642 0.330658 8.80758 0.330658ZM8.80758 15.7847C4.84769 15.7847 1.62602 12.6709 1.62602 8.84351C1.62602 5.01615 4.84769 1.90226 8.80758 1.90226C12.7675 1.90226 15.9891 5.01611 15.9891 8.84347C15.9891 12.6708 12.7675 15.7847 8.80758 15.7847Z" />
<path d="M19.7618 18.3199L15.1005 13.8147C14.7829 13.5077 14.2685 13.5077 13.9509 13.8147C13.6333 14.1214 13.6333 14.6191 13.9509 14.9258L18.6122 19.4311C18.771 19.5846 18.9789 19.6613 19.187 19.6613C19.3949 19.6613 19.603 19.5846 19.7618 19.4311C20.0794 19.1244 20.0794 18.6267 19.7618 18.3199Z" />
</g>
<defs>
<clipPath id="clip0">
<rect width="20" height="19.3307" fill="white" transform="translate(0 0.330658)"/>
</clipPath>
</defs>
</svg>
